<?xml version="1.0" encoding="utf-8"?>
<!-- Generator: Adobe Illustrator 26.5.0, SVG Export Plug-In . SVG Version: 6.00 Build 0)  -->
<svg version="1.1" id="ev" xmlns="http://www.w3.org/2000/svg" xmlns:xlink="http://www.w3.org/1999/xlink" x="0px" y="0px"
	 viewBox="0 0 100 93.3" style="enable-background:new 0 0 100 93.3;" xml:space="preserve">
<style type="text/css">
	.st0{fill:#3959A5;}
</style>
<g>
	<path class="st0" d="M67,77.4l10.3-13.2c3.2-4,4.1-9.4,2.4-14.2c-0.9-2.3-2.4-4.3-4.3-5.8c-1.9-1.5-4.2-2.5-6.6-2.8
		c-0.6-0.1-1.1-0.1-1.7-0.1c-0.6,0-1.2,0-1.7,0.1c-2.4,0.3-4.7,1.3-6.6,2.8c-1.9,1.5-3.4,3.5-4.3,5.8c-1.7,4.8-0.8,10.2,2.4,14.1
		L67,77.4z M58.1,51.6c0.6-1.7,1.7-3.1,3-4.2c1.4-1.1,3-1.8,4.8-2l0.1,0l2.4,0c1.8,0.2,3.4,0.9,4.8,2c1.4,1.1,2.4,2.6,3,4.2
		c1.2,3.6,0.4,7.6-2.1,10.4l-7.1,9.2L60,62C57.6,59.2,56.9,55.2,58.1,51.6z"/>
	<path class="st0" d="M88,7c-2.7-2.7-6.3-4.2-10.1-4.2H22.1C18.3,2.8,14.7,4.3,12,7c-2.7,2.7-4.2,6.3-4.2,10.1v55.7
		c0,3.8,1.5,7.4,4.2,10.1c2.7,2.7,6.3,4.2,10.1,4.2h55.7c3.8,0,7.4-1.5,10.1-4.2c2.7-2.7,4.2-6.3,4.2-10.1V17.1
		C92.2,13.3,90.7,9.7,88,7z M22.1,83.3c-2.8,0-5.4-1.1-7.4-3.1c-2-2-3.1-4.6-3.1-7.4l0,0V25.6l33,5.1L33,83.3H22.1z M88.3,72.8
		c0,2.8-1.1,5.4-3.1,7.4s-4.6,3.1-7.4,3.1H36.9l11.6-52l39.8,6.1V72.8z M88.3,33.4L11.7,21.6v-4.5c0-2.8,1.1-5.4,3.1-7.4
		c2-2,4.6-3.1,7.4-3.1h55.7c2.8,0,5.4,1.1,7.4,3.1c2,2,3.1,4.6,3.1,7.4V33.4z"/>
	<path class="st0" d="M67.4,59.3c2.7,0,4.8-2.2,4.8-4.8c0-2.7-2.2-4.8-4.8-4.8c-2.7,0-4.8,2.2-4.8,4.8
		C62.5,57.1,64.7,59.3,67.4,59.3z M67.4,51.9c1.4,0,2.5,1.1,2.5,2.5s-1.1,2.5-2.5,2.5c-1.4,0-2.5-1.1-2.5-2.5S66,51.9,67.4,51.9z"/>
</g>
</svg>
