<svg id="ev" xmlns="http://www.w3.org/2000/svg" width="100" height="79.006" fill="#3959A5" viewBox="0 0 100 79.006">
  <path id="Path_11427" data-name="Path 11427" d="M6.471,34.867h19.51a8.128,8.128,0,0,0,5.892-2.608L46.65,15.936l.386-.386a4.681,4.681,0,0,1,6.471.386L68.382,32.356a8.422,8.422,0,0,0,5.892,2.511H93.687a5.729,5.729,0,0,0,2.221-.483,6.606,6.606,0,0,0,3.67-8.4L90.5,3.96A6.715,6.715,0,0,0,84.608,0H15.453A6.831,6.831,0,0,0,9.562,3.96L.483,25.981A6.725,6.725,0,0,0,0,28.4a6.6,6.6,0,0,0,1.835,4.539A6.5,6.5,0,0,0,6.471,34.867Zm-2.8-7.63L12.653,5.312a3.134,3.134,0,0,1,2.8-1.932H84.511a3.163,3.163,0,0,1,2.9,1.932l8.982,21.925a3.259,3.259,0,0,1-1.739,4.057,4.108,4.108,0,0,1-1.062.193H74.177A4.969,4.969,0,0,1,70.7,30.038L55.922,13.618a8.027,8.027,0,0,0-5.892-2.7,7.715,7.715,0,0,0-5.216,2.028l-.676.676L29.362,29.941a4.591,4.591,0,0,1-3.477,1.449H6.471A2.968,2.968,0,0,1,3.477,28.4,1.662,1.662,0,0,1,3.67,27.237Z"/>
  <path id="Path_11428" data-name="Path 11428" d="M6.5,40.739V72.515a1.739,1.739,0,1,0,3.477,0V40.739a1.739,1.739,0,1,0-3.477,0Z" transform="translate(-0.222 -1.332)"/>
  <path id="Path_11429" data-name="Path 11429" d="M95.239,39A1.731,1.731,0,0,0,93.5,40.739V72.515a1.739,1.739,0,0,0,3.477,0V40.739A1.731,1.731,0,0,0,95.239,39Z" transform="translate(-3.194 -1.332)"/>
  <path id="Path_11430" data-name="Path 11430" d="M20.229,44.5A4.843,4.843,0,0,0,15.4,49.329V64.107a4.843,4.843,0,0,0,4.829,4.829H26.6a4.66,4.66,0,0,0,4.539-4.829V49.329A4.843,4.843,0,0,0,26.314,44.5Zm7.63,4.829V64.2A1.3,1.3,0,0,1,26.6,65.555H20.229a1.485,1.485,0,0,1-1.449-1.449V49.329a1.485,1.485,0,0,1,1.449-1.449h6.181A1.422,1.422,0,0,1,27.859,49.329Z" transform="translate(-0.526 -1.52)"/>
  <path id="Path_11431" data-name="Path 11431" d="M76.629,44.5A4.843,4.843,0,0,0,71.8,49.329V64.107a4.843,4.843,0,0,0,4.829,4.829h6.181a4.843,4.843,0,0,0,4.829-4.829V49.329A4.843,4.843,0,0,0,82.811,44.5Zm7.63,4.829V64.107a1.485,1.485,0,0,1-1.449,1.449H76.629a1.485,1.485,0,0,1-1.449-1.449V49.329a1.485,1.485,0,0,1,1.449-1.449h6.181A1.422,1.422,0,0,1,84.259,49.329Z" transform="translate(-2.453 -1.52)"/>
  <path id="Path_11432" data-name="Path 11432" d="M63.474,74.389a1.731,1.731,0,0,0,1.739-1.739V52.175A6.431,6.431,0,0,0,58.838,45.8H43.675A6.431,6.431,0,0,0,37.3,52.175V72.747a1.739,1.739,0,1,0,3.477,0V52.175a3.009,3.009,0,0,1,2.994-2.994H58.838a3.009,3.009,0,0,1,2.994,2.994V72.747A1.57,1.57,0,0,0,63.474,74.389Z" transform="translate(-1.274 -1.565)"/>
  <path id="Path_11433" data-name="Path 11433" d="M98.323,78.2H1.739a1.739,1.739,0,0,0,0,3.477H98.226a1.731,1.731,0,0,0,1.739-1.739A1.713,1.713,0,0,0,98.323,78.2Z" transform="translate(0 -2.671)"/>
  <path id="Path_11434" data-name="Path 11434" d="M42.8,62.639v3.38a1.739,1.739,0,1,0,3.477,0v-3.38a1.739,1.739,0,0,0-3.477,0Z" transform="translate(-1.462 -2.08)"/>
</svg>
