<svg xmlns="http://www.w3.org/2000/svg" width="86.52" height="86.52" viewBox="0 0 86.52 86.52"><path d="M25.07.01c-7.34.12-13.62 2.52-18.06 7C.68 13.26-1.56 23.34 1.1 34.89a51.53 51.53 0 001.81 6 41.18 41.18 0 000 4.69 51.8 51.8 0 00-1.81 6C-1.56 63.12.68 73.13 7.01 79.46s16.33 8.57 27.88 5.91a51.86 51.86 0 006-1.81 40.74 40.74 0 004.69 0 51.88 51.88 0 006 1.81c11.54 2.66 21.58.42 27.91-5.91s8.54-16.33 5.88-27.88a51.68 51.68 0 00-1.78-6 40.67 40.67 0 000-4.81 51.45 51.45 0 001.78-6c2.66-11.54.45-21.58-5.87-27.91C74.8 2.26 67.96-.19 59.98.01a41.86 41.86 0 00-8.34 1.09 51.59 51.59 0 00-6 1.78 40.68 40.68 0 00-4.81 0 51.61 51.61 0 00-6-1.78A41.83 41.83 0 0026.49.01c-.45-.01-.93-.01-1.42 0zm-.25 6c.82 0 1.67 0 2.53.09A40.22 40.22 0 006.04 27.45c-.44-7.11 1.59-12.6 5.22-16.19 3.16-3.16 7.73-5.1 13.56-5.25zm36.91 0c5.83.12 10.4 2.06 13.53 5.25 3.62 3.62 5.64 9.11 5.19 16.22A40.22 40.22 0 0059.16 6.07c.88-.05 1.74-.11 2.56-.09zM40.26 8.92v11.56a22.8 22.8 0 00-19.78 19.78H8.91A34.56 34.56 0 0140.26 8.92zm6 0A34.56 34.56 0 0177.6 40.26H66.04a22.8 22.8 0 00-19.78-19.78V8.92zm-3 17.34a17 17 0 11-12 5 17 17 0 0112-5zm-34.35 20h11.57a22.88 22.88 0 0019.78 19.78v11.57A34.56 34.56 0 018.91 46.26zm57.13 0H77.6v.09a34.58 34.58 0 01-31.34 31.26V66.04a22.8 22.8 0 0019.78-19.78zm-60 12.78a40.28 40.28 0 0021.44 21.44c-7.11.44-12.6-1.59-16.22-5.22s-5.67-9.09-5.22-16.22zm74.44.06c.44 7.1-1.57 12.54-5.22 16.16s-9.11 5.66-16.22 5.22A40 40 0 0080.48 59.1z" fill="#fff"/></svg>