<svg xmlns="http://www.w3.org/2000/svg" width="98.618" height="100" fill="#3959A5" viewBox="0 0 98.618 100">
  <g id="ilk" transform="translate(0.1 -0.036)">
    <path id="Path_11422" data-name="Path 11422" d="M74.846,9.752a1.733,1.733,0,0,0,1.74-1.74v-.58a1.486,1.486,0,0,1,1.45-1.45h2.223a1.486,1.486,0,0,1,1.45,1.45v9.182a1.74,1.74,0,0,0,3.479,0V7.433A4.847,4.847,0,0,0,80.355,2.6H78.132A4.847,4.847,0,0,0,73.3,7.433v.58A1.579,1.579,0,0,0,74.846,9.752Z" transform="translate(-2.457 -0.086)"/>
    <path id="Path_11423" data-name="Path 11423" d="M28.929,36.439a3.965,3.965,0,0,0,1.063-.1v8.215a1.74,1.74,0,1,0,3.479,0V34.216L57.538,10.053,81.7,34.216V53.45a1.74,1.74,0,1,0,3.479,0V36.342A4.912,4.912,0,0,0,89.53,28.03L63.627,2.514a9.075,9.075,0,0,0-12.661.193L25.45,28.127a4.9,4.9,0,0,0,0,6.959A5.244,5.244,0,0,0,28.929,36.439Zm-1.063-5.9L53.382,5.124a5.355,5.355,0,0,1,3.963-1.74A5.482,5.482,0,0,1,61.211,4.93L86.824,30.543A1.5,1.5,0,0,1,84.7,32.67l-.29-.29h0L59.375,7.25l-.193-.193-.1-.1c-.1-.1-.1-.1-.193-.1-.1-.1-.193-.1-.29-.193-.1,0-.1-.1-.193-.1s-.193-.1-.29-.1H56.572c-.1,0-.193.1-.29.1s-.1,0-.193.1-.193.1-.29.193c-.1,0-.1.1-.193.1l-.1.1-.193.193L29.992,32.67a1.5,1.5,0,0,1-2.126-2.126Z" transform="translate(-0.807 0)"/>
    <path id="Path_11424" data-name="Path 11424" d="M67.77,53.964a1.715,1.715,0,0,0,1.74-1.643V44.2a5.776,5.776,0,0,0-5.7-5.7H52.4a5.776,5.776,0,0,0-5.7,5.7v3.383a1.74,1.74,0,0,0,3.479,0V44.2a2.438,2.438,0,0,1,2.32-2.416H63.807a2.438,2.438,0,0,1,2.416,2.32v8.119A1.48,1.48,0,0,0,67.77,53.964Z" transform="translate(-1.567 -1.288)"/>
    <path id="Path_11425" data-name="Path 11425" d="M18.264,66.2A7.472,7.472,0,0,0,7.922,64.75L.577,70.162A1.793,1.793,0,0,0-.1,71.322a3.247,3.247,0,0,0,.483,1.353l21.65,28.8a1.567,1.567,0,0,0,1.353.677,1.633,1.633,0,0,0,.967-.29L31.7,96.452a.1.1,0,0,0,.1-.1c.1,0,.1-.1.193-.1A7.332,7.332,0,0,0,33.245,86.11Zm11.5,27.353-.1.1a.1.1,0,0,0-.1.1l-5.9,4.349L4.056,72l5.992-4.446a4.009,4.009,0,0,1,5.606.773L30.442,88.14A3.776,3.776,0,0,1,29.766,93.552Z" transform="translate(0 -2.118)"/>
    <path id="Path_11426" data-name="Path 11426" d="M97.489,59.946a10.337,10.337,0,0,0-12.082-1.063,57.641,57.641,0,0,1-15.464,6.186,6.381,6.381,0,0,0,.1-1.353v-.193a7.3,7.3,0,0,0-7.249-7.249H53.8a7.291,7.291,0,0,1-4.929-2.03,16.35,16.35,0,0,0-20.1-1.933,35.6,35.6,0,0,0-9.182,7.829,1.721,1.721,0,0,0,2.706,2.126,31.076,31.076,0,0,1,8.312-7.152A12.984,12.984,0,0,1,46.553,56.66a10.666,10.666,0,0,0,7.249,3h9.085a3.877,3.877,0,0,1,3.866,3.866v.193a3.971,3.971,0,0,1-.87,2.513,1.044,1.044,0,0,0-.29.677,4.154,4.154,0,0,1-2.706,1.063H51.869a1.74,1.74,0,1,0,0,3.479H62.694a7.749,7.749,0,0,0,5.509-2.32c8.119-2.03,14.208-4.253,18.944-7.249a6.839,6.839,0,0,1,8.119.773.1.1,0,0,1,.1.1.919.919,0,0,1,.387.967,1.7,1.7,0,0,1-.58,1.256,111.112,111.112,0,0,1-19.91,12.855A33.874,33.874,0,0,1,61.148,81.4l-21.747.58a7.237,7.237,0,0,0-2.03.193,1.744,1.744,0,0,0-1.256,2.03,1.657,1.657,0,0,0,1.643,1.256.581.581,0,0,0,.387-.1,3.965,3.965,0,0,1,1.063-.1h.1l21.843-.58a38.231,38.231,0,0,0,15.561-3.963A114.2,114.2,0,0,0,97.2,67.485a5.346,5.346,0,0,0,1.933-3.769A4.013,4.013,0,0,0,97.489,59.946Z" transform="translate(-0.647 -1.663)"/>
  </g>
</svg>
