<?xml version="1.0" encoding="utf-8"?>
<!-- Generator: Adobe Illustrator 26.5.0, SVG Export Plug-In . SVG Version: 6.00 Build 0)  -->
<svg version="1.1" id="ev" xmlns="http://www.w3.org/2000/svg" xmlns:xlink="http://www.w3.org/1999/xlink" x="0px" y="0px"
	 viewBox="0 0 147 97.7" style="enable-background:new 0 0 147 97.7;" xml:space="preserve">
<style type="text/css">
	.st0{fill:#3959A5;}
</style>
<g id="Layer_1-2">
	<g id="TR-34">
		<path class="st0" d="M93.9,84.2c-0.4,0-0.8-0.1-1.1-0.4l-0.4-0.3c-0.3-0.3-0.6-0.6-0.7-1l-0.3-0.4c-0.3-0.8,0-1.8,0.7-2.4
			c-0.1-0.3-0.1-0.6-0.1-1l0,0c-0.1-0.1-0.1-0.3-0.1-0.4c-0.4,0-0.7,0-1.1-0.1l-5.8-2.8c-0.3-0.1-0.6-0.4-0.8-0.7l-2.1-3.2l-2.8-1.7
			c-0.3,0.1-0.6,0.1-1,0c-0.7-0.1-1.1-0.6-1.4-1.3c-0.1,0-0.1,0-0.3-0.1c-0.6-0.3-1-0.7-1.1-1.4l-1.1-3.9c-0.3-0.8,0-1.7,0.7-2.1
			l2.4-2l0.1-1.4c0-0.4,0.1-0.8,0.4-1.1l0.3-0.4v-1.1c0-0.7,0.4-1.3,0.8-1.6l0.3-0.3c-0.8-0.6-1.1-1.7-0.7-2.7l0.1-0.1l-0.1-0.4
			c-0.1-0.8,0.1-1.7,1-2.1l0,0c0.1-0.7,0.7-1.3,1.4-1.4l0.7-0.1l0.1-0.6c0.1-0.4,0.4-0.8,0.8-1l3.1-2.1c0.4-0.3,1-0.4,1.4-0.3
			l1.4,0.3c0.3-0.4,0.8-0.7,1.4-0.8l2.7-0.3c0.3,0,0.7,0,1,0.1l1,0.4l4.9,1.4h2.8c0.3,0,0.4,0,0.7,0.1l7.5,2.5l4.9,1.1l1-0.6
			c0.6-0.3,1.1-0.4,1.7-0.1l4.2,1.6l3.1,0.6l2.8-0.3c0.3,0,0.7,0,1,0.1l3.9,1.6l1.6-0.3c0.1,0,0.3,0,0.4,0l4.4,0.3c1,0,1.8,0.8,2,2
			l0.1,4.4c0,0.4-0.1,1-0.4,1.4l-1.3,2l-2,3.9c-0.3,0.4-0.7,0.8-1.1,1l-2.7,0.8c-0.4,0.1-1,0.1-1.4,0l-3.9-1.6l-1.3,0.1l-0.6,0.7
			l-1.3,3.9c-0.1,0.6-0.7,1.1-1.3,1.3l-1.1,0.4c-0.4,0.1-0.8,0.1-1.3,0.1l-6.1-1.6l-3,0.1l-1,0.4l-1,0.8l-1.6,3.7
			c-0.1,0.4-0.4,0.7-0.8,1l-3.1,2l-1,1.6c-0.3,0.4-0.7,0.8-1.3,1l-1,2.1c-0.3,0.4-0.7,0.8-1.1,1v0.1c-0.1,0.7-0.7,1.1-1.3,1.4
			s-1.3,0.1-1.8-0.3l-0.6-0.4c-0.4,0.1-1,0.1-1.6,0l-0.3-0.1l-0.6,0.1c-0.3,0.3-0.6,0.6-1,0.7C94.3,84.2,94,84.2,93.9,84.2z
			 M97.8,78.8c0.1,0,0.4,0,0.6,0.1c0.3-0.3,0.7-0.4,1-0.6l1-2c0.3-0.6,0.8-1,1.6-1.1l0.7-1.1c0.1-0.3,0.4-0.6,0.7-0.7l3-1.8l1.6-3.5
			c0.1-0.3,0.3-0.6,0.6-0.7L110,66c0.1-0.1,0.3-0.3,0.6-0.3l1.6-0.7c0.3-0.1,0.4-0.1,0.7-0.1l3.7-0.3c0.3,0,0.4,0,0.7,0l5.5,1.4
			l1-3.1c0.1-0.3,0.3-0.6,0.4-0.7l1.4-1.6c0.3-0.4,0.8-0.6,1.3-0.7l2.5-0.3c0.3,0,0.7,0,1,0.1l3.7,1.6l1.1-0.4l1.7-3.4
			c0-0.1,0.1-0.3,0.3-0.4l1.4-1.8v-1.7l-2.3-0.1l-2,0.3c-0.4,0-0.7,0-1.1-0.1l-3.9-1.6l-3,0.3c-0.1,0-0.4,0-0.6,0l-3.7-0.6
			c-0.1,0-0.3,0-0.4-0.1l-3.5-1.3l-0.7,0.4c-0.4,0.3-1,0.3-1.4,0.3l-5.9-1.3h-0.1l-7.3-2.4h-2.7c-0.1,0-0.4,0-0.6-0.1l-5.4-1.6h-0.1
			l-0.7-0.3h-0.7c-0.3,0.3-0.6,0.4-0.8,0.6l-1.4,0.4c-0.3,0.1-0.6,0.1-1,0.1l-1.4-0.1l-2,1.3l-0.3,0.8c-0.3,0.7-0.7,1.1-1.4,1.3
			l-0.6,0.1c-0.1,0.3-0.3,0.4-0.4,0.6v0.1c0.4,0.3,0.7,0.7,0.8,1.3l0.3,1.6c0.1,0.8-0.1,1.7-0.8,2.1l-0.8,0.7V57
			c0,0.4-0.1,0.8-0.4,1.3l-0.4,0.4l-0.1,1.6c0,0.6-0.3,1.1-0.7,1.4l-2,1.6l0.1,0.7c0,0,0,0,0.1,0c0.6,0.3,1,0.7,1.1,1.3l0,0
			c0,0,0.1,0,0.1,0.1l4.2,2.7c0.3,0.1,0.4,0.4,0.6,0.6l2.1,3.1l4.2,2.1c0.6-0.3,1.3-0.3,1.8,0l1.1,0.6c0.3,0.1,0.7,0.4,0.8,0.8
			l0.3,0.4h0.3c0.8,0,1.7,0.6,1.8,1.4l0.3,1C97.8,78.3,97.8,78.5,97.8,78.8z M59.5,66.8h-0.1l-1.6-0.1c-0.3,0-0.7-0.1-1-0.3L54.6,65
			l-0.4,0.1c-0.3,0.1-0.7,0.3-1.1,0.3l-2.4-0.1L48.9,66c-0.3,0.1-0.4,0.1-0.7,0.1L45,66.4c-0.4,0-0.8-0.1-1.3-0.3L42,65
			c-0.6-0.4-1-1-1-1.7c-0.3,0.3-0.6,0.6-1,0.7c-0.6,0.3-1.3,0.1-1.8-0.3l-5.1-3.5l-3-1.4l-4.7-1.4L19.8,57c-0.4,0-0.8-0.1-1.1-0.4
			l-1-0.7c-0.4,0.3-0.8,0.4-1.4,0.4l-2.5-0.1L12,56.6l-0.3,0.3c-0.3,0.3-0.7,0.4-1.1,0.6l-2.8,0.3L3,60.4c-0.6,0.3-1.1,0.3-1.7,0.1
			c-0.6-0.1-1-0.6-1.3-1.1l-1.6-3.2c-0.3-0.6-0.3-1.1,0-1.6c-0.1-0.4-0.3-0.8-0.3-1.3l0.3-1.8c0-0.1,0.1-0.4,0.1-0.6
			c-0.1-0.4,0-0.8,0.1-1.3l2.5-5.2L1,43c0-0.3,0-0.4,0-0.7l0.3-2c0-0.3,0.1-0.4,0.3-0.7l3.8-6.5l1.1-5.1l1.4-11.1c0-0.1,0-0.1,0-0.3
			l2.5-9.2c0.1-0.6,0.6-1.1,1.3-1.4C13,6,13.7,6,14.3,6.2l2,1.1c0.6,0.3,1,0.8,1,1.6c0,0.1,0,0.4,0,0.6l1.8,1.7
			c0.1,0.1,0.1,0.1,0.3,0.3c0.1,0.1,0.3,0.1,0.4,0.3l2.5,2.3l15.1,8.2l4.7,2c0.1,0,0.1,0.1,0.3,0.1l3.7,2.3l2.4,0.8l0.4-0.1
			c0.6-0.1,1.1-0.1,1.7,0.1c0.4,0.1,0.7,0.6,0.8,1l5.8,3l11.1,4.2l3.8,0.7c0.4-0.6,1.1-0.8,1.8-0.8l1.6,0.1c0.3,0,0.6,0.1,0.8,0.3
			c0.4,0,0.8,0,1.3,0.3l2.3,1.3c0.3,0.1,0.6,0.4,0.8,0.8l0.3,0.4c0.3,0.6,0.3,1.3,0,1.8l-0.1,0.4c0.3,0.8,0,1.7-0.6,2.3L79,44
			l-1.1,2c-0.1,0.3-0.3,0.4-0.6,0.6L76.6,47l1,1.3c0.6,0.7,0.6,1.6,0.1,2.3l-1,2l0.1,0.7c0.1,0.7-0.1,1.4-0.7,1.8
			c0,0.3-0.1,0.6-0.3,0.8l-1,1.7c-0.3,0.4-0.6,0.7-1,0.8l-1.8,0.8l-0.1,1.4c-0.1,1-0.8,1.7-1.8,1.8l-2.5,0.3l-0.3,0.4
			c-0.4,0.6-1,0.8-1.6,0.8l0,0l-0.1,0c-0.3,0.3-0.7,0.6-1.1,0.6L61.8,65l-0.7,1C60.6,66.4,60.1,66.8,59.5,66.8z M54.7,60.5
			c0.4,0,0.7,0.1,1.1,0.3l2.8,1.7l0.6-0.7c0.3-0.4,0.8-0.7,1.4-0.8l2.8-0.4l0.3-0.3c0.3-0.3,0.8-0.6,1.3-0.6l0.3-0.3
			c0.3-0.4,0.8-0.7,1.4-0.8l1.7-0.3v-0.4c0-0.3,0.1-0.7,0.3-1l0.6-0.8c0.1-0.3,0.6-0.6,0.8-0.7l1.8-0.8l0.3-0.4v-0.1
			c-0.1-0.7,0.1-1.4,0.7-2c0-0.4,0-0.8,0.3-1.1l0.7-1.3l-1.4-1.8c-0.3-0.4-0.6-1-0.4-1.6c0.1-0.6,0.4-1,0.8-1.4l2.1-1.4l1.1-1.8
			c0.1-0.1,0.3-0.4,0.4-0.6l0.3-0.1c0-0.3,0-0.4,0.1-0.7c-0.6,0.1-1.1,0-1.6-0.4c-0.3,0.4-0.8,0.6-1.3,0.6h-0.7c-0.1,0-0.4,0-0.6,0
			l-4.9-1c-0.1,0-0.3,0-0.3-0.1l-11.3-4.2c0,0-0.1,0-0.1-0.1l-7.6-3.1c-0.3,0-0.7,0-1-0.1l-3.2-1.1c-0.1,0-0.3-0.1-0.4-0.1l-3.8-2.4
			l-4.7-2c0,0-0.1,0-0.1-0.1L20,17.4c-0.1-0.1-0.3-0.1-0.4-0.3l-2.3-2h-0.1c-0.8-0.1-1.4-0.7-1.7-1.6l-1.4-1.3l-1.6,5.4l-1.4,11.1
			v0.1l-1.3,5.5c0,0.1-0.1,0.4-0.3,0.6l-3.8,6.5l-0.1,1.1L6,44.4c0,0.4,0,0.8-0.1,1.3l-2.5,5.1l0,0c0.3,0.7,0.1,1.6-0.4,2.1V53
			c0.4,0.6,0.6,1.4,0.3,2.1l0,0.1l0.1,0.4l3.2-1.8c0.3-0.1,0.6-0.3,0.8-0.3l2.5-0.3l0.1-0.1c0.3-0.3,0.6-0.4,0.8-0.4l2.5-0.6
			c0.3,0,0.4,0,0.7,0l2.1,0.1h0.1c0.4-0.3,0.8-0.6,1.3-0.6h0.8c0.4,0,0.8,0.1,1.3,0.4l1.3,1l5.4,0.4c0.1,0,0.3,0,0.4,0.1l4.9,1.4
			c0.1,0,0.1,0,0.3,0.1l3.2,1.6c0.1,0,0.1,0.1,0.3,0.1l3.1,2.3l0.8-1.1c0.4-0.6,1-0.8,1.7-0.8h1.6c0.4,0,0.8,0.1,1.3,0.6l0.8,0.8
			c0.6,0.4,0.7,1.1,0.7,1.8l-0.3,2l0,0l2.3-0.1l1.8-0.8c0.3-0.1,0.6-0.1,1-0.1l2.3,0.1l1-0.6C54,60.6,54.3,60.5,54.7,60.5z"/>
	</g>
</g>
</svg>
