<svg xmlns="http://www.w3.org/2000/svg" width="100" height="44.445" viewBox="0 0 100 44.445">
  <path id="Union_2" data-name="Union 2" d="M91.533,44.445a1.621,1.621,0,0,1-.449-.063H8.916a1.621,1.621,0,0,1-.449.063H1.619A1.619,1.619,0,0,1,1.4,41.222v-.015h.951V11.83a.716.716,0,0,1,.054-.4.667.667,0,0,1,.251-.311q2.8-2.692,5.63-5.385C9.24,4.817,12.952,1.263,13.92.347a.815.815,0,0,1,.645-.311.913.913,0,0,1,.628.311Q20.571,5.4,25.951,10.494,31.277,5.386,36.6.311A.842.842,0,0,1,37.232,0a.91.91,0,0,1,.662.311Q40.773,3,43.615,5.7c.968.9,4.751,4.469,5.719,5.384a.665.665,0,0,1,.251.312.932.932,0,0,1,.054.4l0,29.43h4.679V20.419H52.78a.945.945,0,0,1-.879-.586.977.977,0,0,1,.2-1.044L60.7,9.724a1.025,1.025,0,0,1,.681-.293.979.979,0,0,1,.681.293l8.607,9.066a.96.96,0,0,1-.682,1.63H68.45V24.76a5.33,5.33,0,0,1,3.641,2.471A6.142,6.142,0,0,1,73,30.2a7.83,7.83,0,0,1,3.515.843c2.619,1.355,3.622,3.774,4.555,5.275a17.32,17.32,0,0,0,4.555,4.89H92.86V29.8a5.727,5.727,0,0,1-5.021-5.73V12.537a5.65,5.65,0,1,1,11.3,0V24.07A5.727,5.727,0,0,1,94.115,29.8v11.4h4.267a1.619,1.619,0,0,1,0,3.237ZM56.184,41.207H66.567V32.1H56.184ZM40.854,28.349a.94.94,0,0,1,.663.275.957.957,0,0,1,.269.677v11.9l5.953,0V13.3H26.921l0,27.91h5.953V29.3a.984.984,0,0,1,.269-.677.913.913,0,0,1,.662-.275Zm27.6,12.857H82.67a18.921,18.921,0,0,1-3.191-3.865c-1.04-1.74-1.848-3.571-3.821-4.579a6.676,6.676,0,0,0-3-.677l-.5.018-.018-.018c-.018,0-.018.018-.036.018H68.45Zm-33.692,0H39.9V30.272H34.757ZM18.136,28.386a.942.942,0,0,1,.663.274.959.959,0,0,1,.269.678V41.206h5.953V13.294H4.22V41.2h5.954V29.338a.986.986,0,0,1,.269-.678.917.917,0,0,1,.663-.274Zm-6.1,12.82h5.147v-10.9H12.038ZM68.45,30.182h2.672a4.227,4.227,0,0,0-.61-1.923,3.291,3.291,0,0,0-2.062-1.52Zm-6.133,0h4.25V26.573h-4.25Zm-6.134,0h4.25V26.573h-4.25ZM89.094,12.537V24.07a4.43,4.43,0,0,0,3.766,4.44V17.42l-2.416-2.465a.65.65,0,0,1-.145-.7.623.623,0,0,1,1.033-.206l1.527,1.56V12.632a.634.634,0,0,1,.617-.648.618.618,0,0,1,.453.187.645.645,0,0,1,.184.461v10l1.507-1.537a.622.622,0,0,1,1.029.2.652.652,0,0,1-.14.71h0l-2.395,2.443v4.066a4.428,4.428,0,0,0,3.767-4.439V12.537a4.395,4.395,0,1,0-8.788,0ZM56.184,24.65H66.567V20.419H56.184ZM55,18.479H67.769l-6.384-6.722ZM27.8,11.371H46.825q-4.787-4.532-9.576-9.029Q32.543,6.848,27.8,11.371Zm-22.665,0H24.088c-3.173-3-6.366-5.99-9.539-8.992Q9.842,6.858,5.135,11.371Zm5.521,9.835a.979.979,0,0,1-.95-.971.966.966,0,0,1,.95-.97h7.926a.971.971,0,0,1,0,1.941Zm22.7-.017a.97.97,0,0,1,0-1.94h7.926a.97.97,0,0,1,0,1.94Z"/>
</svg>
