<svg id="map" xmlns="http://www.w3.org/2000/svg" xmlns:xlink="http://www.w3.org/1999/xlink" fill="#3959A5" width="100" height="70.092" viewBox="0 0 100 70.092">
  <defs>
    <clipPath id="clip-path">
      <rect id="Rectangle_687" data-name="Rectangle 687" width="100" height="70.092"/>
    </clipPath>
  </defs>
  <g id="Group_783" data-name="Group 783" transform="translate(0 0)" clip-path="url(#clip-path)">
    <path id="Path_1454" data-name="Path 1454" d="M99.121,55.378l-.141-.106V54.39a1.353,1.353,0,0,0-.247-.776L97.8,52.308c-.035-.053-.088-.106-.123-.159l-.476-.494.741-1.958a1.31,1.31,0,0,0-.847-1.747l-.335-.106L96.7,46.257a1.361,1.361,0,0,0-.035-.265l-.229-.97a2.235,2.235,0,0,0-.106-.318l-.776-1.464c.229-.159.494-.335.723-.476a1.4,1.4,0,0,0,.6-.988l.088-1.094.529-1.041a1.322,1.322,0,0,0-.159-1.429l-.6-.741a1.481,1.481,0,0,0-.547-.388l-1.341-.529a1.047,1.047,0,0,0-.406-.088l-2.329-.123-.141-.247.247-1.235a3.28,3.28,0,0,0,.053-.829L92.17,32.5a3.818,3.818,0,0,0-.071-.441l-.37-1.747a1.3,1.3,0,0,0-.653-.864l-1.164-.653-2.858-2.54a1.318,1.318,0,0,0-1.747,0l-1.006.882L81.144,27.1a3.385,3.385,0,0,0-2.558,1.217l-.759.917a.537.537,0,0,1-.141.141L74.016,31.6a.518.518,0,0,1-.282.071H72.411l-.088-.018a25.8,25.8,0,0,0,1.817-8.662,24.041,24.041,0,0,0-6.951-16.3A22.423,22.423,0,0,0,42.666,1.694,24.228,24.228,0,0,0,35.4,6.422a22.354,22.354,0,0,0-6.686,16.019v.265a29.4,29.4,0,0,0,1.023,6.6l-.441.282a3.12,3.12,0,0,0-.388.282l-1.094.953-.335.088-1.994-.617a3.334,3.334,0,0,0-.935-.141l-1.464-.018-3.423-.9a1.317,1.317,0,0,0-1.5.67l-1.006,1.923a1.312,1.312,0,0,0,.423,1.711l.6.406L18.056,34l-.212.106-1.094.653a1.431,1.431,0,0,0-.512.565c-.247-.088-.459-.159-.582-.194-.476-.3-1.023-.229-1.976-.071l-1.447.159a.428.428,0,0,1-.212,0l-1.658-.406a3.01,3.01,0,0,0-1.059-.071l-2.452.229a1.375,1.375,0,0,0-.9.476l-.759.9a.433.433,0,0,1-.3.194c-.406.088-.935.212-1.27.282-.582-.088-1.164.441-2.223,1.447a3.224,3.224,0,0,0,3.3,5.381l.123-.035.565.882L4.366,46.31a.608.608,0,0,1-.212.212L2.672,47.4a1.263,1.263,0,0,0-.617.847L1.79,49.415a1.311,1.311,0,0,0,.847,1.517l1.852.67a.781.781,0,0,1,.265.212l.512.706a.527.527,0,0,1,.106.406l-.176,1.658a1.382,1.382,0,0,0,.388,1.094l.706.67-.864,1.87a1.328,1.328,0,0,0,.053,1.235,1.372,1.372,0,0,0,1.041.653l3.087.212a.46.46,0,0,1,.194.053l1.059.459.494.935a1.293,1.293,0,0,0,.935.688l2.082.37a.62.62,0,0,1,.423.3l.776,1.394A3.136,3.136,0,0,0,17.3,65.981l1.235.441a3.113,3.113,0,0,0,1.552.159l2.611-.37a1.347,1.347,0,0,0,.829-.459l1.059-1.27a1.355,1.355,0,0,0,.247-.441l.265-.829a.609.609,0,0,1,.617-.406l1.729.176a.6.6,0,0,1,.353.159l1.006.988a5.717,5.717,0,0,0,.547.423l1.464.9,2.382,1.835a3.309,3.309,0,0,0,1.994.67l2.735-.018a3.3,3.3,0,0,0,1.235-.265l2.364-.988a4.529,4.529,0,0,0,1.182-.723l2.223-1.782a2.5,2.5,0,0,1,.917-.459l.565-.123.141.053a4.946,4.946,0,0,0,4.5-.494,2.246,2.246,0,0,1-.3,1.341,3.563,3.563,0,0,0-.423,1.164L50.076,67.3a1.365,1.365,0,0,0,.547,1.288l1.8,1.253a1.3,1.3,0,0,0,.759.247,1.343,1.343,0,0,0,.37-.053,1.258,1.258,0,0,0,.847-.759l.512-1.253,1.658-.776a1.276,1.276,0,0,0,.706-.829,1.357,1.357,0,0,0-.141-1.076l-.388-.582.494-1.253a8.312,8.312,0,0,0,4.993-.229c.494-.194,1.006-.388,1.2-.441.282-.035.706-.106,1.164-.159a3.325,3.325,0,0,1,1.941.388c4.146,1.941,9.915-1.429,12.208-2.981a.6.6,0,0,1,.3-.088h3.37a3.331,3.331,0,0,0,1.482-.353l1.041-.547.582.547a1.22,1.22,0,0,0,.953.353,1.309,1.309,0,0,0,.935-.441l1.358-1.5a.573.573,0,0,1,.441-.194l1.164.018h.212l2.7-.071a.5.5,0,0,1,.565.388,2.68,2.68,0,0,0,.829,1.411c.688.476,1.323.282,3.458-.776a1.437,1.437,0,0,0,.494-.423l.829-1.182a1.365,1.365,0,0,0,.229-1.006,1.333,1.333,0,0,0-.565-.847M33.828,15.031A18.265,18.265,0,0,1,50.888,3.74a18.479,18.479,0,0,1,7.145,1.376,17.764,17.764,0,0,1,5.945,3.969,18.787,18.787,0,0,1,5.346,13.355,20.531,20.531,0,0,1-1.817,8.892A27.015,27.015,0,0,1,65.83,34.6a37.9,37.9,0,0,1-4.781,6.281,42.62,42.62,0,0,1-9.368,7.48.259.259,0,0,0-.265.265c-.265.282-.529.282-.529,0a.259.259,0,0,1-.265-.265,51.81,51.81,0,0,1-13.09-12.279A22.814,22.814,0,0,1,34,29.85c-.3-.829-.565-1.676-.794-2.523a26.3,26.3,0,0,1-.759-5.151,18.811,18.811,0,0,1,1.376-7.145M96.139,56.86a3.348,3.348,0,0,0-2.929-1.694l-2.752.071-1.182-.018a3.358,3.358,0,0,0-2.488,1.059l-.441.512-.282-.265a1.336,1.336,0,0,0-1.517-.212l-1.87.97a.5.5,0,0,1-.265.071h-3.37a3.213,3.213,0,0,0-1.782.547c-3.087,2.064-7.216,3.881-9.615,2.77a6.014,6.014,0,0,0-3.44-.617c-.565.088-1.094.176-1.094.176-.265,0-.282,0-1.8.565a5.432,5.432,0,0,1-3.546.106l-.917-.282a1.335,1.335,0,0,0-1.623.794l-1.182,3a1.276,1.276,0,0,0,.053,1.076l-.776.37a1.22,1.22,0,0,0-.388.282l.018-.071a.432.432,0,0,1,.071-.212,5.043,5.043,0,0,0-.494-5.751,1.37,1.37,0,0,0-.97-.459h-.035a1.333,1.333,0,0,0-.953.388l-.582.6a2.363,2.363,0,0,1-2.488.547l-.529-.212a1.459,1.459,0,0,0-.776-.053l-.97.229a5.305,5.305,0,0,0-1.976.97l-2.205,1.8a2.274,2.274,0,0,1-.565.335l-2.346.988a.488.488,0,0,1-.229.053l-2.735.018a.655.655,0,0,1-.37-.123L32.434,63.37c-.088-.071-.176-.141-.282-.212l-1.5-.935-1.023-.988a3.291,3.291,0,0,0-1.923-.882l-1.729-.176a3.174,3.174,0,0,0-3.387,2.205l-.194.6-.582.67-2.1.318a.523.523,0,0,1-.282-.035L18.2,63.493a.592.592,0,0,1-.318-.265l-.794-1.411a3.127,3.127,0,0,0-2.241-1.588L13.4,59.965l-.406-.776a1.272,1.272,0,0,0-.635-.582l-1.5-.67a3.7,3.7,0,0,0-1.076-.265L8.635,57.6l.441-.97a1.316,1.316,0,0,0-.265-1.5l-.917-.9L8,53.191a3.191,3.191,0,0,0-.6-2.241l-.512-.688a3.217,3.217,0,0,0-1.5-1.147l-.282-.088.388-.229a3.253,3.253,0,0,0,1.164-1.182l1.429-2.505a1.292,1.292,0,0,0-.035-1.376l-.864-1.323-.053-.688a1.334,1.334,0,0,0-.617-.988,1.311,1.311,0,0,0-1.147-.123l-1.552.547a.588.588,0,0,1-.741-.318.6.6,0,0,1,.141-.653c.282-.282.582-.565.794-.759.388-.053.864-.176,1.464-.318a3.242,3.242,0,0,0,1.764-1.076l.406-.494,1.905-.176a.724.724,0,0,1,.194.018l1.641.388a2.787,2.787,0,0,0,1.147.071l1.517-.176s.37-.053.635-.088c.529.212,1.341.441,2.54.794A1.325,1.325,0,0,0,18.9,36.942l-.053-.37L21.5,35.513a1.314,1.314,0,0,0,.265-2.329l-1.57-1.076,2.223.582a3.238,3.238,0,0,0,.829.106l1.482.035,2.346.706a1.259,1.259,0,0,0,.723.018l.988-.265a1.287,1.287,0,0,0,.512-.265L30.6,31.914a26.452,26.452,0,0,0,3.987,7.092,53.982,53.982,0,0,0,13.9,13.09,5.479,5.479,0,0,0,2.929,1.076A4.427,4.427,0,0,0,54.363,52.1a70.235,70.235,0,0,0,9.88-8.009,40.966,40.966,0,0,0,7.021-9.968l.494.123a3.316,3.316,0,0,0,.829.088l1.182-.018a3.047,3.047,0,0,0,1.623-.459l3.67-2.223a3.369,3.369,0,0,0,.847-.741l.741-.935a.639.639,0,0,1,.459-.212l3.67.035a1.239,1.239,0,0,0,.882-.318L86.171,29l2.1,1.87a.9.9,0,0,0,.229.159l.759.423.265,1.235.088,1.658L89.294,36.1a1.218,1.218,0,0,0,.159.917l.759,1.288a1.3,1.3,0,0,0,1.059.653l2.823.141.6.247-.194.388a1.387,1.387,0,0,0-.141.459l-.053.706c-1.429.953-1.658,1.217-1.729,1.8a1.334,1.334,0,0,0,.229.935c.106.176.282.582.318.635l.776,1.517.159.688.071,2.417a1.355,1.355,0,0,0,.829,1.2l-.529,1.394a1.309,1.309,0,0,0,.265,1.394L95.7,53.914l.635.882V55.96a1.32,1.32,0,0,0,.194.706c-.123.071-.265.123-.388.194" transform="translate(0.297 0)"/>
    <path id="Path_1455" data-name="Path 1455" d="M2.511,25.864a1.4,1.4,0,0,0,.776-.247l1.129-.829a.636.636,0,0,1,.353-.106h.917a3.359,3.359,0,0,0,1.905-.617l1.217-.9.988-.494,2.029-.494a.434.434,0,0,1,.212-.018l1.623.229a3.271,3.271,0,0,0,2.876-1.059l.847-.97a1.293,1.293,0,0,0,.318-1.111,1.317,1.317,0,0,0-.67-.935l-2.4-1.306-.988-.953.335-1.111a1.264,1.264,0,0,0-.229-1.217,1.347,1.347,0,0,0-1.111-.494l-1.994.141a1.254,1.254,0,0,0-.388-.565l-.812-.653a1.321,1.321,0,0,0-.617-.282l-1.888-.318a1.348,1.348,0,0,0-1.235.459l-.741.9-1.288.406a1.349,1.349,0,0,0-.882.864A1.316,1.316,0,0,0,3.04,15.4L3.9,16.5c-.018.088-.053.176-.071.265-.212.123-.547.335-.864.494a1.344,1.344,0,0,0-.706,1.023L2.14,19.372.729,20.819a1.322,1.322,0,0,0-.388.935v.829L.023,24.294a1.322,1.322,0,0,0,1.288,1.57Zm.476-3.581,1.358-1.376a1.31,1.31,0,0,0,.388-.776l.088-.882c1.094-.635,1.235-.9,1.341-1.147a7.211,7.211,0,0,0,.459-1.658,1.335,1.335,0,0,0-.265-1.111l-.071-.088a1.111,1.111,0,0,0,.459-.353l.494-.6.812.141.159.123.088.459a1.351,1.351,0,0,0,1.376,1.076L10.891,16l-.018.053a1.337,1.337,0,0,0,.353,1.358l1.57,1.5a3.268,3.268,0,0,0,.706.512l.653.353c-.053-.018-.088,0-.123-.018l-1.623-.229a3.247,3.247,0,0,0-1.235.071l-2.152.547a.779.779,0,0,0-.282.106l-1.2.6c-.071.035-.123.071-.194.106l-1.306.953a.657.657,0,0,1-.353.123H4.769a3.326,3.326,0,0,0-1.782.512Z" transform="translate(0 8.82)"/>
    <path id="Path_1456" data-name="Path 1456" d="M26.1,21.861a8.455,8.455,0,0,0,6.757,3.264,8.566,8.566,0,0,0,1.923-.212,8.271,8.271,0,0,0,3.458-1.641,8.484,8.484,0,0,0,3.176-6.7A8.606,8.606,0,0,0,32.862,8.03a8.435,8.435,0,0,0-8.539,8.539,9.112,9.112,0,0,0,.353,2.54A8.519,8.519,0,0,0,26.1,21.861M32.862,12.3a4.694,4.694,0,0,1,4.552,4.552,4.523,4.523,0,0,1-2.787,4.2,4.759,4.759,0,0,1-1.764.335,4.684,4.684,0,0,1-4.234-3.017,4.011,4.011,0,0,1-.3-1.517A4.678,4.678,0,0,1,32.862,12.3" transform="translate(18.588 6.137)"/>
  </g>
</svg>
