<?xml version="1.0" encoding="utf-8"?>
<!-- Generator: Adobe Illustrator 26.5.0, SVG Export Plug-In . SVG Version: 6.00 Build 0)  -->
<svg version="1.1" id="ev" xmlns="http://www.w3.org/2000/svg" xmlns:xlink="http://www.w3.org/1999/xlink" x="0px" y="0px"
	 viewBox="0 0 100 91.3" style="enable-background:new 0 0 100 91.3;" xml:space="preserve">
<style type="text/css">
	.st0{fill:#3959A5;}
</style>
<g>
	<path class="st0" d="M69.8,54.1h-3.9c-1.4,0-2.5,1.1-2.5,2.5v3.8c0,1.4,1.1,2.5,2.5,2.5h3.9c1.4,0,2.5-1.1,2.5-2.5v-3.8
		C72.3,55.2,71.2,54.1,69.8,54.1z M69.8,60.4L66,60.5v-3.8l3.7-0.1L69.8,60.4z"/>
	<path class="st0" d="M84.4,60.5v-3.8c0-1.4-1.1-2.5-2.5-2.5H78c-1.4,0-2.5,1.1-2.5,2.5v3.8c0,1.4,1.1,2.5,2.5,2.5h3.9
		C83.3,63,84.4,61.9,84.4,60.5z M81.9,60.4l-3.8,0.1v-3.8l3.7-0.1L81.9,60.4z"/>
	<path class="st0" d="M95.3,88.4H90V47.3c0-1.3-1-2.3-2.3-2.3H59.4c-1.3,0-2.3,1-2.3,2.3v18.5h-5.1l-3.3-30.4h0l0,0l-0.5-5
		c-0.1-0.6-0.6-1.1-1.2-1.1h-6v-2.9c0.4,0.1,0.8,0.1,1.2,0.1c2.9,0,5.5-2,6.4-4.7l0.3-0.9c0.1-0.3,0.1-0.6-0.1-0.9
		c-0.1-0.3-0.4-0.5-0.7-0.6l-1-0.3c-1.7-0.5-3.4-0.3-5,0.5c-0.4,0.2-0.8,0.5-1.1,0.8v-1.8l0.5-0.5c3.2-3.3,3.1-8.6-0.2-11.8
		l-0.9-0.8c-0.2-0.2-0.5-0.3-0.9-0.3c-0.3,0-0.6,0.1-0.8,0.4l-0.9,0.9c-3.1,3.3-3,8.5,0.2,11.7l0.6,0.6v1.8
		c-0.3-0.3-0.7-0.5-1.1-0.8c-1.5-0.8-3.3-1-5-0.5l-1,0.3c-0.3,0.1-0.6,0.3-0.7,0.6c-0.1,0.3-0.2,0.6-0.1,0.9l0.3,0.9
		c0.9,3.2,4.3,5.3,7.6,4.6v2.9h-6c-0.6,0-1.1,0.5-1.2,1.1l-3.8,35.4h-1.7c-1.2,0-2.2,1-2.2,2.3l0,20.5h-5.2c-0.7,0-1.2,0.5-1.2,1.2
		l0,0.1c0,0.6,0.6,1.1,1.2,1.1h76.9c0.7,0,1.2-0.5,1.2-1.2S95.9,88.4,95.3,88.4z M77.9,72.6l0,15.8h-9.5V72.6H77.9z M79.1,70.2H67.2
		c-0.7,0-1.2,0.5-1.2,1.2v17h-6.5l0-41.1l28.2-0.1v41.2h-7.3v-17C80.3,70.7,79.7,70.2,79.1,70.2z M46.3,78.5v9.9h-9.5v-9.9H46.3z
		 M47.5,76.1H35.6c-0.7,0-1.2,0.5-1.2,1.2v11.1H26l0-15.5h31v15.5h-8.4V77.3C48.7,76.7,48.1,76.1,47.5,76.1z M39.6,16.3
		c-2.3-2.2-2.4-5.9-0.2-8.3l0.1-0.1C41.9,10.2,42,14,39.6,16.3L39.6,16.3z M46.1,21.4c-0.4,1-1,1.7-2,2.2c-0.9,0.5-1.9,0.6-2.9,0.4
		c0.3-1,1-1.8,1.9-2.3C44.1,21.3,45.1,21.1,46.1,21.4z M36.3,21.8c0.9,0.5,1.6,1.3,1.9,2.3c-1,0.2-2,0.1-2.9-0.4
		c-0.9-0.5-1.6-1.3-2-2.2C34.3,21.1,35.4,21.3,36.3,21.8z M33.4,34.1l0.3-2.5l12.2,0l0.3,2.5L33.4,34.1z M32.8,39.3l0.3-2.8h13.3
		l0.3,2.8H32.8z M29.9,65.7l2.6-24h14.4l2.6,24H29.9z M57,68.1v2.4H26v-2.4H57z M31.2,20.8L31.2,20.8L31.2,20.8L31.2,20.8z"/>
</g>
</svg>
