<svg xmlns="http://www.w3.org/2000/svg" width="100" height="93.69" viewBox="0 0 100 93.69" fill="#00A769">
  <path id="noun-park-3659632" d="M118.7,40.019V62.926A12.492,12.492,0,0,0,130.095,75.37V100.8h-6.356a1.042,1.042,0,0,0,0,2.084h19.215a1.042,1.042,0,0,0,0-2.084H132.18V75.38A12.492,12.492,0,0,0,143.7,62.926V40.018a12.365,12.365,0,0,0-12.5-12.868c-3.1-.014-7.208.962-9.574,4.092A15.773,15.773,0,0,0,118.7,40.019Zm12.5-10.412a10.368,10.368,0,0,1,10.416,10.412V62.926a10.361,10.361,0,0,1-9.439,10.365V62.21l6.05-6.048h0a1.042,1.042,0,1,0-1.474-1.473l-4.577,4.576V37.623a1.042,1.042,0,1,0-2.085,0V47.3l-4.568-4.567a1.042,1.042,0,1,0-1.474,1.474l6.041,6.04V73.281a10.362,10.362,0,0,1-9.309-10.354V40.02A10.369,10.369,0,0,1,131.2,29.608Zm-40.625,8.33a9.375,9.375,0,0,0-9.375,9.37V66.048a9.376,9.376,0,0,0,8.334,9.313V100.8H82.243a1.042,1.042,0,0,0,0,2.084h18.085a1.042,1.042,0,0,0,0-2.084H91.619V75.361a9.376,9.376,0,0,0,8.333-9.313V47.308a9.374,9.374,0,0,0-9.375-9.37Zm81.25,0a9.375,9.375,0,0,0-9.375,9.37V66.048a9.376,9.376,0,0,0,8.334,9.313V100.8h-9.607a1.042,1.042,0,0,0,0,2.084h18.981a1.042,1.042,0,0,0,0-2.084h-7.292V75.361a9.377,9.377,0,0,0,8.334-9.313V47.308a9.375,9.375,0,0,0-9.375-9.37Zm-81.25,2.082a7.253,7.253,0,0,1,7.292,7.289V66.048a7.245,7.245,0,0,1-6.25,7.215V55.244l4.009-4.007h0a1.042,1.042,0,1,0-1.474-1.474L91.618,52.3V47.462a1.042,1.042,0,1,0-2.083,0V63.708l-2.5-2.5h0a1.042,1.042,0,1,0-1.474,1.474l3.973,3.97v6.609a7.245,7.245,0,0,1-6.25-7.215V47.308a7.251,7.251,0,0,1,7.292-7.289Zm81.25,0a7.253,7.253,0,0,1,7.292,7.289V66.048a7.244,7.244,0,0,1-6.25,7.215V66.654l3.974-3.971h0a1.042,1.042,0,1,0-1.474-1.474l-2.5,2.5V47.462a1.041,1.041,0,1,0-2.083,0V52.3l-2.535-2.534a1.042,1.042,0,1,0-1.474,1.474l4.01,4.006v18.02a7.246,7.246,0,0,1-6.251-7.215V47.308a7.252,7.252,0,0,1,7.292-7.289ZM151.414,58.363a6.41,6.41,0,1,0,6.392,6.411A6.417,6.417,0,0,0,151.414,58.363Zm0,2.082a4.328,4.328,0,1,1-4.307,4.329A4.3,4.3,0,0,1,151.414,60.445Zm-39,0a3.916,3.916,0,0,0-3.891,3.909v0a3.6,3.6,0,0,0,.044.546,5.927,5.927,0,1,0,7.7,0,3.633,3.633,0,0,0,.044-.547v0a3.917,3.917,0,0,0-3.892-3.909Zm0,2.082a1.685,1.685,0,0,1,1.528,1.142,5.853,5.853,0,0,0-3.054,0,1.685,1.685,0,0,1,1.527-1.142Zm0,3.023h.008c.111,0,.222.008.33.016a.9.9,0,0,1,.149.02c.053.008.105.016.158.028a3.814,3.814,0,0,1,1.463.58l.176.116a3.842,3.842,0,1,1-4.538-.017l.152-.1a3.813,3.813,0,0,1,1.452-.576c.053-.008.114-.016.172-.028s.1-.008.145-.02c.11-.008.22-.016.333-.016Zm36.434,6.215h0a1.118,1.118,0,0,0-.139.02h-4.038a4.1,4.1,0,0,0-2.789,1.1,1.025,1.025,0,0,0-.185.178,1.038,1.038,0,0,0-.179.285L134.817,85a3.719,3.719,0,1,0,6.439,3.722l1.7-2.948,1.446-2.516v9.824a1.044,1.044,0,0,0,0,.527v23.268a3.978,3.978,0,0,0,3.986,3.941,4.3,4.3,0,0,0,3.121-1.349,4.552,4.552,0,0,0,3.2,1.371,3.747,3.747,0,0,0,3.73-3.733V93.614a1.035,1.035,0,0,0,0-.537V83.259l1.448,2.516,1.7,2.948a4.993,4.993,0,0,0,1.8,1.718,3.794,3.794,0,0,0,3.48-.355,3.744,3.744,0,0,0,1.719-2.409A3.414,3.414,0,0,0,168.02,85l-6.784-11.793h0v0l-.028-.044a1.041,1.041,0,0,0-.252-.277,4.1,4.1,0,0,0-2.791-1.1h-4.592a1.041,1.041,0,0,0-1.009.8,1.376,1.376,0,0,1-.227.286,1.548,1.548,0,0,1-.486.318,1.494,1.494,0,0,1-.6.117,1.543,1.543,0,0,1-1.085-.435,1.578,1.578,0,0,1-.228-.286h0a1.116,1.116,0,0,0-1.081-.817Zm-4.177,2.1h3.607a3.658,3.658,0,0,0,.424.5,3.62,3.62,0,0,0,1.144.752,3.671,3.671,0,0,0,2.79,0,3.615,3.615,0,0,0,1.144-.752,3.511,3.511,0,0,0,.424-.5h3.952a2,2,0,0,1,1.345.513l6.706,11.656a1.624,1.624,0,0,1-.6,2.247,1.6,1.6,0,0,1-2.228-.6l-1.7-2.948-1.7-2.948-1.559-2.71h0a1.041,1.041,0,0,0-2.082.057V92.3h-9.867V79.5a1.042,1.042,0,0,0-1.633-1.022l-.028.016-.036.027a1.049,1.049,0,0,0-.308.4l-1.642,2.852-1.7,2.948-1.7,2.948a1.6,1.6,0,0,1-2.229.6,1.623,1.623,0,0,1-.6-2.247l6.709-11.659a2,2,0,0,1,1.343-.511Zm-29.928,1.868h0a1.043,1.043,0,0,0-.941.591.164.164,0,0,0-.008.02c-.006.015-.011.029-.016.044a1.216,1.216,0,0,1-.275.4,1.312,1.312,0,0,1-.413.272,1.381,1.381,0,0,1-.512.1,1.332,1.332,0,0,1-.514-.1,1.232,1.232,0,0,1-.412-.272,1.256,1.256,0,0,1-.272-.4l-.008-.015v0a1.042,1.042,0,0,0-.977-.618,1.12,1.12,0,0,0-.139.02h-3.988a3.828,3.828,0,0,0-2.606,1.026,1.047,1.047,0,0,0-.279.321l-6.194,10.8a4.069,4.069,0,0,0-.506,2.173,3.415,3.415,0,0,0,1.581,2.6,5.069,5.069,0,0,0,3.042.358,3.844,3.844,0,0,0,1.923-1.638l1.548-2.7.209-.365-2.542,15.2a3.3,3.3,0,0,0,1.03,2.911,4.06,4.06,0,0,0,2.8,1.119h.231v9.764a3.508,3.508,0,0,0,3.485,3.5,3.463,3.463,0,0,0,2.442-1.014,3.463,3.463,0,0,0,2.442,1.014,3.508,3.508,0,0,0,3.484-3.5v-9.764h.23a4.063,4.063,0,0,0,2.8-1.119,3.3,3.3,0,0,0,1.03-2.911l-2.542-15.2.206.36,1.549,2.7a3.488,3.488,0,1,0,6.038-3.5l-6.2-10.8h0c-.009-.018-.017-.036-.028-.054a1.04,1.04,0,0,0-.254-.278,3.831,3.831,0,0,0-2.6-1.02h-3.619a1,1,0,0,0-.212-.028Zm-8.483,2.106h3.564a3.34,3.34,0,0,0,1.442,1.138,3.414,3.414,0,0,0,3.693-.708,3.334,3.334,0,0,0,.366-.429h3.249a1.717,1.717,0,0,1,1.154.435l6.117,10.663a1.4,1.4,0,0,1-.513,1.939,1.364,1.364,0,0,1-1.909-.516l-1.548-2.7-1.549-2.7-1.5-2.624h0a1.042,1.042,0,0,0-.671-.575l-.02,0-.062-.015c-.02,0-.041-.006-.062-.008l-.028,0c-.03,0-.06-.007-.091-.007a1.041,1.041,0,0,0-1.025,1.325l3.482,20.832a1.145,1.145,0,0,1-.411,1.059,2.084,2.084,0,0,1-1.36.544H106.264a2.08,2.08,0,0,1-1.358-.544,1.137,1.137,0,0,1-.412-1.059l3.5-20.928h0v-.008c0-.021.006-.041.008-.062a1.042,1.042,0,0,0-1.985-.545l-1.5,2.624-1.549,2.7-1.548,2.7a1.365,1.365,0,0,1-1.91.517,1.4,1.4,0,0,1-.514-1.939l6.117-10.661a1.716,1.716,0,0,1,1.153-.436ZM146.484,94.38h9.867V117.1a1.621,1.621,0,0,1-1.646,1.65,2.656,2.656,0,0,1-1.509-.56,1.48,1.48,0,0,1-.646-1.091V97.923h0a1.042,1.042,0,1,0-2.083,0v18.949a2.075,2.075,0,0,1-2.082,1.859,1.855,1.855,0,0,1-1.9-1.859Zm-37.906,13.184h2.8v9.764a1.4,1.4,0,1,1-2.8,0Zm4.884,0h2.8v9.764a1.4,1.4,0,1,1-2.8,0Z" transform="translate(-81.202 -27.15)"/>
</svg>
